<svg width="46" height="46" viewBox="0 0 46 46" fill="none" xmlns="http://www.w3.org/2000/svg">
<path d="M27.6001 29.1333V26.0667C28.2901 25.7247 30.2635 23.3757 30.4705 21.5403C31.0133 21.4989 31.8658 21.0005 32.1173 19.0333C32.2522 17.9768 31.7156 17.3834 31.3905 17.1963C31.3905 17.1963 32.2001 15.6584 32.2001 13.8015C32.2001 10.0786 30.7388 6.90153 27.6001 6.90153C27.6001 6.90153 26.5099 4.60153 23.0001 4.60153C16.4957 4.60153 13.8001 8.77373 13.8001 13.8015C13.8001 15.4943 14.6097 17.1963 14.6097 17.1963C14.2846 17.3834 13.748 17.9783 13.8829 19.0333C14.1344 21.0005 14.9869 21.4989 15.5297 21.5403C15.7367 23.3757 17.7101 25.7247 18.4001 26.0667V29.1333C16.8668 33.7333 4.6001 30.6667 4.6001 41.4H41.4001C41.4001 30.6667 29.1334 33.7333 27.6001 29.1333Z" fill="#EB8671"/>
</svg>
