<svg width="46" height="46" viewBox="0 0 46 46" fill="none" xmlns="http://www.w3.org/2000/svg">
<path d="M19.9334 4.59946C11.4832 4.59946 4.6001 11.4826 4.6001 19.9328C4.6001 28.383 11.4832 35.2661 19.9334 35.2661C23.6081 35.2661 26.9828 33.9612 29.6276 31.7952L38.7826 40.9502C38.9239 41.0974 39.0932 41.2149 39.2804 41.2958C39.4677 41.3768 39.6692 41.4195 39.8732 41.4216C40.0772 41.4237 40.2796 41.385 40.4685 41.3079C40.6573 41.2308 40.8289 41.1168 40.9732 40.9725C41.1174 40.8283 41.2314 40.6567 41.3086 40.4678C41.3857 40.2789 41.4243 40.0766 41.4222 39.8726C41.4202 39.6686 41.3774 39.4671 41.2965 39.2798C41.2155 39.0925 41.098 38.9233 40.9509 38.782L31.7958 29.6269C33.9619 26.9821 35.2668 23.6074 35.2668 19.9328C35.2668 11.4826 28.3836 4.59946 19.9334 4.59946ZM19.9334 7.66612C26.7263 7.66612 32.2001 13.1399 32.2001 19.9328C32.2001 26.7256 26.7263 32.1995 19.9334 32.1995C13.1406 32.1995 7.66676 26.7256 7.66676 19.9328C7.66676 13.1399 13.1406 7.66612 19.9334 7.66612Z" fill="#EB8671"/>
</svg>
